<svg width="64" height="64" viewBox="0 0 64 64" fill="none" xmlns="http://www.w3.org/2000/svg">
  <rect width="64" height="64" rx="14" fill="#161616"/>
  <rect x="0.75" y="0.75" width="62.5" height="62.5" rx="13.25" stroke="#f97316" stroke-opacity="0.3" stroke-width="1.5"/>
  <!-- Fishing hook -->
  <path d="M44 11 v9 a7 7 0 0 1 -14 0 a3 3 0 0 1 6 0 a1 1 0 0 0 2 0 v-9"
        stroke="#f97316" stroke-width="3.2" stroke-linecap="round" fill="none"/>
  <circle cx="44" cy="10.5" r="2.3" fill="#f97316"/>
  <!-- Fish -->
  <path d="M14 41c0-7 8-12.5 17.5-12.5 6 0 11.3 2.2 14.4 5.6l6.7-4.6c1-.7 2.3.2 2 1.4l-1.6 7.7c.5.8.7 1.6.7 2.4s-.2 1.6-.7 2.4l1.6 7.7c.3 1.2-1 2.1-2 1.4l-6.7-4.6c-3.1 3.4-8.4 5.6-14.4 5.6C22 53.5 14 48 14 41z"
        fill="#f97316"/>
  <circle cx="24" cy="38.5" r="2.4" fill="#161616"/>
</svg>
