<svg xmlns="http://www.w3.org/2000/svg" width="24" height="24" viewBox="0 0 24 24" fill="none">
  <path d="M5 13.5a7 4.5 0 0 1 14 0 7 4.5 0 0 1-14 0z" fill="none" stroke="#F5A623" stroke-width="1.7" stroke-linecap="round" stroke-linejoin="round"/>
  <path d="M9.8 11.6V9.4M14.2 11.6V9.4M6 13c-2-1-3.4-2.6-3.6-4.6M18 13c2-1 3.4-2.6 3.6-4.6M7 16l-2 2.4M10 17l-1 2.4M14 17l1 2.4M17 16l2 2.4" fill="none" stroke="#3D2C1E" stroke-width="1.7" stroke-linecap="round" stroke-linejoin="round"/>
  <circle cx="9.8" cy="12.6" r="0.75" fill="#3D2C1E"/>
  <circle cx="14.2" cy="12.6" r="0.75" fill="#3D2C1E"/>
</svg>
