<svg xmlns="http://www.w3.org/2000/svg" width="24" height="24" viewBox="0 0 24 24" fill="none">
  <path d="M12 3c3.2 0 5.5 2.4 5.5 5.6 0 2.6-1.4 4.6-3 5.4H9.5c-1.6-.8-3-2.8-3-5.4C6.5 5.4 8.8 3 12 3z" fill="none" stroke="#F5A623" stroke-width="1.7" stroke-linecap="round" stroke-linejoin="round"/>
  <path d="M9 13.8c-1 1.6-2.4 2.6-4 3M11 14.2c-.6 1.8-1.4 3.2-2.4 4.4M13 14.2c.6 1.8 1.4 3.2 2.4 4.4M15 13.8c1 1.6 2.4 2.6 4 3" fill="none" stroke="#3D2C1E" stroke-width="1.7" stroke-linecap="round" stroke-linejoin="round"/>
  <circle cx="10" cy="8.2" r="0.8" fill="#3D2C1E"/>
  <circle cx="14" cy="8.2" r="0.8" fill="#3D2C1E"/>
</svg>
