<svg xmlns="http://www.w3.org/2000/svg" width="24" height="24" viewBox="0 0 24 24" fill="none">
  <path d="M3 8c1-1.6 3.2-2.2 5-1.4 1 .4 1.7 1.1 2 2-.3.9-1 1.6-2 2C6.2 11.4 4 10.8 3 8z" fill="none" stroke="#F5A623" stroke-width="1.7" stroke-linecap="round" stroke-linejoin="round"/>
  <path d="M9.4 8l1.8-1.4v2.8z" fill="none" stroke="#F5A623" stroke-width="1.7" stroke-linecap="round" stroke-linejoin="round"/>
  <path d="M11 16c1-1.6 3.2-2.2 5-1.4 1 .4 1.7 1.1 2 2-.3.9-1 1.6-2 2-1.8.8-4 .2-5-2.6z" fill="none" stroke="#F5A623" stroke-width="1.7" stroke-linecap="round" stroke-linejoin="round"/>
  <path d="M17.4 16l1.8-1.4v2.8z" fill="none" stroke="#F5A623" stroke-width="1.7" stroke-linecap="round" stroke-linejoin="round"/>
  <circle cx="5.6" cy="7.4" r="0.6" fill="#3D2C1E"/>
  <circle cx="13.6" cy="15.4" r="0.6" fill="#3D2C1E"/>
</svg>
